<?xml version="1.0" standalone="no"?><!DOCTYPE svg PUBLIC "-//W3C//DTD SVG 1.1//EN" "http://www.w3.org/Graphics/SVG/1.1/DTD/svg11.dtd"><svg t="1557451368332" class="icon" style="" viewBox="0 0 1024 1024" version="1.1" xmlns="http://www.w3.org/2000/svg" p-id="5586" xmlns:xlink="http://www.w3.org/1999/xlink" width="200" height="200"><defs><style type="text/css"></style></defs><path d="M977.18 622.756l-326.078 98.568H383.3L50.266 622.756l26.542-133.302a89.126 89.126 0 0 1 3.67-13.12 90.57 90.57 0 0 1 64.624-57.426l204.678-47.59 31.572-101.994c12.572-40.636 50.146-68.334 92.688-68.334h300.508a97.02 97.02 0 0 1 83.866 48.24l91.43 157.148a90.76 90.76 0 0 1 12.024 38.02l2.738 31.936 12.574 146.422z" fill="#0099FF" p-id="5587"></path><path d="M964.608 476.336H80.48a90.57 90.57 0 0 1 64.624-57.426l204.678-47.59 31.572-101.994c12.572-40.636 50.146-68.334 92.688-68.334h300.508a97.02 97.02 0 0 1 83.866 48.24l91.43 157.148a90.76 90.76 0 0 1 12.024 38.02l2.738 31.936z" fill="#0099FF" p-id="5588"></path><path d="M864.64 622.756h94.868c27.218 0 49.284 22.066 49.284 49.284s-22.066 49.284-49.284 49.284h-75.118M149.99 721.324h-85.5c-27.218 0-49.284-22.066-49.284-49.284s22.066-49.284 49.284-49.284H169.74" fill="#9AA7B8" p-id="5589"></path><path d="M79.446 672.04c0-27.218 22.066-49.284 49.284-49.284h-64.24c-27.218 0-49.284 22.066-49.284 49.284s22.066 49.284 49.284 49.284h64.238c-27.216 0-49.282-22.066-49.282-49.284z" fill="#8292A3" p-id="5590"></path><path d="M175.398 513.258m-38.526 0a38.526 38.526 0 1 0 77.052 0 38.526 38.526 0 1 0-77.052 0Z" fill="#F0C800" p-id="5591"></path><path d="M859.186 406.378H402.604l5.292-17.074 31.572-101.994c4.704-15.248 18.614-25.488 34.572-25.488h280.232c12.836 0 24.82 6.894 31.288 17.986l73.626 126.57z" fill="#DFEBF0" p-id="5592"></path><path d="M264.292 704.006m-118.996 0a118.996 118.996 0 1 0 237.992 0 118.996 118.996 0 1 0-237.992 0Z" fill="#2C4046" p-id="5593"></path><path d="M770.108 704.006m-118.996 0a118.996 118.996 0 1 0 237.992 0 118.996 118.996 0 1 0-237.992 0Z" fill="#2C4046" p-id="5594"></path><path d="M264.292 704.006m-53.334 0a53.334 53.334 0 1 0 106.668 0 53.334 53.334 0 1 0-106.668 0Z" fill="#9AA7B8" p-id="5595"></path><path d="M770.108 704.006m-53.334 0a53.334 53.334 0 1 0 106.668 0 53.334 53.334 0 1 0-106.668 0Z" fill="#9AA7B8" p-id="5596"></path><path d="M991.888 616.302l-14.862-173.198a106.996 106.996 0 0 0-14.034-44.38l-91.432-157.148a111.66 111.66 0 0 0-20.242-25.376h25.034c8.328 0 15.59-6.416 15.838-14.74a15.208 15.208 0 0 0-15.202-15.676H592.102a15.21 15.21 0 0 0 0 30.416h182.448c29.024 0 56.124 15.586 70.72 40.672l91.432 157.148a76.43 76.43 0 0 1 10.02 31.686l13.89 161.872c-0.37-0.006-0.734-0.028-1.106-0.028H864.64v1.314c-24.276-24.122-57.694-39.054-94.538-39.054-74.002 0-134.204 60.204-134.204 134.204 0 0.706 0.042 1.4 0.052 2.102H398.44c0.01-0.702 0.052-1.398 0.052-2.102 0-74-60.204-134.204-134.204-134.204-36.85 0-70.272 14.936-94.548 39.062v-1.324H68.798l22.918-115.134c5.764-28.962 28.074-51.996 56.836-58.684l204.674-47.598a15.206 15.206 0 0 0 11.084-10.316l31.568-101.99c10.67-34.468 42.08-57.626 78.16-57.626h47.094a15.21 15.21 0 0 0 0-30.416h-47.094c-49.202 0-92.666 32.046-107.216 79.048l-28.986 93.652-196.172 45.624c-40.372 9.388-71.686 41.722-79.776 82.374l-25.37 127.46C14.5 624.584-0.586 647.378 0.018 673.56c0.816 35.242 30.554 62.972 65.804 62.972h68.27c14.576 58.338 67.412 101.686 130.2 101.686s115.622-43.348 130.198-101.686h245.414c14.576 58.338 67.412 101.686 130.2 101.686s115.622-43.348 130.198-101.686h57.912c35.432 0 65.222-28.03 65.78-63.458 0.378-24.192-12.646-45.42-32.106-56.772zM64.49 706.116c-18.788 0-34.076-15.288-34.076-34.076s15.288-34.076 34.076-34.076h83.044a133.33 133.33 0 0 0-17.448 66.05c0 0.706 0.042 1.4 0.052 2.102H64.49z m199.798 101.686c-57.23 0-103.788-46.558-103.788-103.788s46.558-103.79 103.788-103.79c57.228 0 103.79 46.558 103.79 103.79 0 57.23-46.558 103.788-103.79 103.788z m505.814 0c-57.23 0-103.788-46.558-103.788-103.788s46.558-103.79 103.788-103.79c57.228 0 103.79 46.558 103.79 103.79-0.002 57.23-46.562 103.788-103.79 103.788z m189.406-101.686h-55.256c0.01-0.702 0.052-1.398 0.052-2.102a133.358 133.358 0 0 0-17.448-66.05h72.652c18.79 0 34.076 15.286 34.076 34.076s-15.288 34.076-34.076 34.076z" fill="" p-id="5597"></path><path d="M121.662 513.26c0 29.63 24.106 53.734 53.734 53.734s53.734-24.106 53.734-53.734c0-29.63-24.106-53.734-53.734-53.734s-53.734 24.104-53.734 53.734z m77.054 0c0 12.858-10.462 23.318-23.318 23.318s-23.318-10.46-23.318-23.318 10.462-23.318 23.318-23.318 23.318 10.46 23.318 23.318zM872.374 413.954a15.208 15.208 0 0 0-0.038-15.23l-73.632-126.558c-9.17-15.762-26.194-25.554-44.432-25.554H474.038c-22.668 0-42.402 14.548-49.106 36.206l-36.852 119.058a15.21 15.21 0 0 0 14.53 19.702h456.58a15.2 15.2 0 0 0 13.184-7.624z m-418.384-122.142a20.892 20.892 0 0 1 20.05-14.782h140.36v114.134h-191.162l30.752-99.352z m190.826 99.352v-114.134h109.456c7.446 0 14.396 3.996 18.142 10.432l60.334 103.702h-187.932zM656.982 468.65a15.21 15.21 0 0 0-15.208-15.208h-56.776a15.21 15.21 0 0 0 0 30.416h56.776a15.21 15.21 0 0 0 15.208-15.208zM264.288 635.474c-37.792 0-68.542 30.746-68.542 68.542s30.748 68.542 68.542 68.542 68.542-30.746 68.542-68.542-30.746-68.542-68.542-68.542z m0 106.666c-21.022 0-38.126-17.102-38.126-38.126 0-21.024 17.104-38.126 38.126-38.126s38.126 17.102 38.126 38.126c0 21.024-17.102 38.126-38.126 38.126zM770.102 635.474c-37.792 0-68.542 30.746-68.542 68.542s30.748 68.542 68.542 68.542c37.792 0 68.542-30.746 68.542-68.542s-30.75-68.542-68.542-68.542z m0 106.666c-21.022 0-38.126-17.102-38.126-38.126 0-21.024 17.104-38.126 38.126-38.126s38.126 17.102 38.126 38.126c0 21.024-17.104 38.126-38.126 38.126zM576.894 635.938a15.21 15.21 0 0 0 0 30.416h26.352a15.21 15.21 0 0 0 0-30.416h-26.352zM428.862 635.938a15.21 15.21 0 0 0 0 30.416h97.334a15.21 15.21 0 0 0 0-30.416h-97.334z" fill="" p-id="5598"></path></svg>